<?xml version="1.0" encoding="UTF-8" standalone="no"?>
<!DOCTYPE svg PUBLIC "-//W3C//DTD SVG 1.1//EN"
 "http://www.w3.org/Graphics/SVG/1.1/DTD/svg11.dtd">
<!-- Generated by graphviz version 2.40.1 (20161225.0304)
 -->
<!-- Title: dependencies Pages: 1 -->
<svg width="1142pt" height="360pt"
 viewBox="0.00 0.00 1142.00 360.00" xmlns="http://www.w3.org/2000/svg" xmlns:xlink="http://www.w3.org/1999/xlink">
<g id="graph0" class="graph" transform="scale(1 1) rotate(0) translate(4 356)">
<title>dependencies</title>
<polygon fill="#ffffff" stroke="transparent" points="-4,4 -4,-356 1138,-356 1138,4 -4,4"/>
<text text-anchor="start" x="546.0091" y="-42.4" font-family="sans-serif" font-weight="bold" font-size="14.00" fill="#000000">Legend</text>
<polygon fill="#ffffb3" stroke="transparent" points="333,-10 333,-30 353,-30 353,-10 333,-10"/>
<text text-anchor="start" x="356.629" y="-15.4" font-family="sans-serif" font-size="14.00" fill="#000000"> &#160;Declarations</text>
<polygon fill="#8dd3c7" stroke="transparent" points="446,-10 446,-30 466,-30 466,-10 446,-10"/>
<text text-anchor="start" x="469.7251" y="-15.4" font-family="sans-serif" font-size="14.00" fill="#000000"> &#160;Module</text>
<polygon fill="#80b1d3" stroke="transparent" points="532,-10 532,-30 552,-30 552,-10 532,-10"/>
<text text-anchor="start" x="555.7812" y="-15.4" font-family="sans-serif" font-size="14.00" fill="#000000"> &#160;Bootstrap</text>
<polygon fill="#fdb462" stroke="transparent" points="629,-10 629,-30 649,-30 649,-10 629,-10"/>
<text text-anchor="start" x="652.6732" y="-15.4" font-family="sans-serif" font-size="14.00" fill="#000000"> &#160;Providers</text>
<polygon fill="#fb8072" stroke="transparent" points="725,-10 725,-30 745,-30 745,-10 725,-10"/>
<text text-anchor="start" x="748.7258" y="-15.4" font-family="sans-serif" font-size="14.00" fill="#000000"> &#160;Exports</text>
<g id="clust1" class="cluster">
<title>cluster_AppModule</title>
<polygon fill="none" stroke="#000000" stroke-dasharray="1,5" points="317,-146 317,-344 739,-344 739,-146 317,-146"/>
</g>
<g id="clust2" class="cluster">
<title>cluster_AppModule_declarations</title>
<polygon fill="none" stroke="#000000" points="609,-154 609,-206 731,-206 731,-154 609,-154"/>
</g>
<g id="clust4" class="cluster">
<title>cluster_AppModule_imports</title>
<polygon fill="none" stroke="#000000" points="485,-154 485,-206 601,-206 601,-154 485,-154"/>
</g>
<g id="clust6" class="cluster">
<title>cluster_AppModule_bootstrap</title>
<polygon fill="none" stroke="#000000" points="481,-284 481,-336 605,-336 605,-284 481,-284"/>
</g>
<g id="clust7" class="cluster">
<title>cluster_AppModule_providers</title>
<polygon fill="none" stroke="#000000" points="325,-154 325,-206 477,-206 477,-154 325,-154"/>
</g>
<g id="clust8" class="cluster">
<title>cluster_SnotifyModule</title>
<polygon fill="none" stroke="#000000" stroke-dasharray="1,5" points="8,-70 8,-138 1126,-138 1126,-70 8,-70"/>
</g>
<g id="clust9" class="cluster">
<title>cluster_SnotifyModule_declarations</title>
<polygon fill="none" stroke="#000000" points="370,-78 370,-130 1118,-130 1118,-78 370,-78"/>
</g>
<g id="clust17" class="cluster">
<title>cluster_SnotifyModule_exports</title>
<polygon fill="none" stroke="#000000" points="16,-78 16,-130 362,-130 362,-78 16,-78"/>
</g>
<!-- AppComponent -->
<g id="node1" class="node">
<title>AppComponent</title>
<polygon fill="#ffffb3" stroke="#000000" points="722.9399,-198 617.0601,-198 617.0601,-162 722.9399,-162 722.9399,-198"/>
<text text-anchor="middle" x="670" y="-175.8" font-family="Times,serif" font-size="14.00" fill="#000000">AppComponent</text>
</g>
<!-- AppModule -->
<g id="node2" class="node">
<title>AppModule</title>
<polygon fill="#8dd3c7" stroke="#000000" points="584.6571,-263 581.6571,-267 560.6571,-267 557.6571,-263 501.3429,-263 501.3429,-227 584.6571,-227 584.6571,-263"/>
<text text-anchor="middle" x="543" y="-240.8" font-family="Times,serif" font-size="14.00" fill="#000000">AppModule</text>
</g>
<!-- AppComponent&#45;&gt;AppModule -->
<g id="edge1" class="edge">
<title>AppComponent&#45;&gt;AppModule</title>
<path fill="none" stroke="#000000" d="M670,-198.1061C670,-217.3391 670,-245 670,-245 670,-245 594.9365,-245 594.9365,-245"/>
<polygon fill="#000000" stroke="#000000" points="594.9366,-241.5001 584.9365,-245 594.9365,-248.5001 594.9366,-241.5001"/>
</g>
<!-- AppComponent  -->
<g id="node4" class="node">
<title>AppComponent </title>
<polygon fill="#80b1d3" stroke="#000000" points="597.439,-328 488.561,-328 488.561,-292 597.439,-292 597.439,-328"/>
<text text-anchor="middle" x="543" y="-305.8" font-family="Times,serif" font-size="14.00" fill="#000000">AppComponent </text>
</g>
<!-- AppModule&#45;&gt;AppComponent  -->
<g id="edge3" class="edge">
<title>AppModule&#45;&gt;AppComponent </title>
<path fill="none" stroke="#000000" stroke-dasharray="1,5" d="M543,-263.1061C543,-263.1061 543,-281.991 543,-281.991"/>
<polygon fill="#000000" stroke="#000000" points="539.5001,-281.9909 543,-291.991 546.5001,-281.991 539.5001,-281.9909"/>
</g>
<!-- SnotifyModule -->
<g id="node3" class="node">
<title>SnotifyModule</title>
<polygon fill="#8dd3c7" stroke="#000000" points="593.2745,-198 590.2745,-202 569.2745,-202 566.2745,-198 492.7255,-198 492.7255,-162 593.2745,-162 593.2745,-198"/>
<text text-anchor="middle" x="543" y="-175.8" font-family="Times,serif" font-size="14.00" fill="#000000">SnotifyModule</text>
</g>
<!-- SnotifyModule&#45;&gt;AppModule -->
<g id="edge2" class="edge">
<title>SnotifyModule&#45;&gt;AppModule</title>
<path fill="none" stroke="#000000" d="M543,-198.1061C543,-198.1061 543,-216.991 543,-216.991"/>
<polygon fill="#000000" stroke="#000000" points="539.5001,-216.9909 543,-226.991 546.5001,-216.991 539.5001,-216.9909"/>
</g>
<!-- KeysPipe  -->
<g id="node12" class="node">
<title>KeysPipe </title>
<polygon fill="#fb8072" stroke="#000000" points="353.6538,-122 280.3462,-122 280.3462,-86 353.6538,-86 353.6538,-122"/>
<text text-anchor="middle" x="317" y="-99.8" font-family="Times,serif" font-size="14.00" fill="#000000">KeysPipe </text>
</g>
<!-- SnotifyModule&#45;&gt;KeysPipe  -->
<g id="edge11" class="edge">
<title>SnotifyModule&#45;&gt;KeysPipe </title>
<path fill="none" stroke="#000000" stroke-dasharray="5,2" d="M530.4032,-161.68C530.4032,-153.2117 530.4032,-145 530.4032,-145 530.4032,-145 343.0745,-145 343.0745,-145 343.0745,-145 343.0745,-132.1025 343.0745,-132.1025"/>
<polygon fill="#000000" stroke="#000000" points="346.5746,-132.1025 343.0745,-122.1025 339.5746,-132.1026 346.5746,-132.1025"/>
</g>
<!-- SnotifyComponent  -->
<g id="node13" class="node">
<title>SnotifyComponent </title>
<polygon fill="#fb8072" stroke="#000000" points="262.0568,-122 135.9432,-122 135.9432,-86 262.0568,-86 262.0568,-122"/>
<text text-anchor="middle" x="199" y="-99.8" font-family="Times,serif" font-size="14.00" fill="#000000">SnotifyComponent </text>
</g>
<!-- SnotifyModule&#45;&gt;SnotifyComponent  -->
<g id="edge12" class="edge">
<title>SnotifyModule&#45;&gt;SnotifyComponent </title>
<path fill="none" stroke="#000000" stroke-dasharray="5,2" d="M517.8065,-161.7985C517.8065,-155.972 517.8065,-151 517.8065,-151 517.8065,-151 199,-151 199,-151 199,-151 199,-132.037 199,-132.037"/>
<polygon fill="#000000" stroke="#000000" points="202.5001,-132.037 199,-122.037 195.5001,-132.037 202.5001,-132.037"/>
</g>
<!-- TruncatePipe  -->
<g id="node14" class="node">
<title>TruncatePipe </title>
<polygon fill="#fb8072" stroke="#000000" points="118.1355,-122 23.8645,-122 23.8645,-86 118.1355,-86 118.1355,-122"/>
<text text-anchor="middle" x="71" y="-99.8" font-family="Times,serif" font-size="14.00" fill="#000000">TruncatePipe </text>
</g>
<!-- SnotifyModule&#45;&gt;TruncatePipe  -->
<g id="edge13" class="edge">
<title>SnotifyModule&#45;&gt;TruncatePipe </title>
<path fill="none" stroke="#000000" stroke-dasharray="5,2" d="M505.2097,-161.8777C505.2097,-159.0271 505.2097,-157 505.2097,-157 505.2097,-157 71,-157 71,-157 71,-157 71,-132.2396 71,-132.2396"/>
<polygon fill="#000000" stroke="#000000" points="74.5001,-132.2396 71,-122.2396 67.5001,-132.2396 74.5001,-132.2396"/>
</g>
<!-- SnotifyService -->
<g id="node5" class="node">
<title>SnotifyService</title>
<ellipse fill="#fdb462" stroke="#000000" cx="401" cy="-180" rx="68.3555" ry="18"/>
<text text-anchor="middle" x="401" y="-175.8" font-family="Times,serif" font-size="14.00" fill="#000000">SnotifyService</text>
</g>
<!-- SnotifyService&#45;&gt;AppModule -->
<g id="edge4" class="edge">
<title>SnotifyService&#45;&gt;AppModule</title>
<path fill="none" stroke="#000000" d="M401,-198.1061C401,-217.3391 401,-245 401,-245 401,-245 491.1633,-245 491.1633,-245"/>
<polygon fill="#000000" stroke="#000000" points="491.1634,-248.5001 501.1633,-245 491.1633,-241.5001 491.1634,-248.5001"/>
</g>
<!-- ButtonsComponent -->
<g id="node6" class="node">
<title>ButtonsComponent</title>
<polygon fill="#ffffb3" stroke="#000000" points="1110.3948,-122 985.6052,-122 985.6052,-86 1110.3948,-86 1110.3948,-122"/>
<text text-anchor="middle" x="1048" y="-99.8" font-family="Times,serif" font-size="14.00" fill="#000000">ButtonsComponent</text>
</g>
<!-- ButtonsComponent&#45;&gt;SnotifyModule -->
<g id="edge5" class="edge">
<title>ButtonsComponent&#45;&gt;SnotifyModule</title>
<path fill="none" stroke="#000000" d="M1048,-122.4218C1048,-131.2791 1048,-140 1048,-140 1048,-140 580.7903,-140 580.7903,-140 580.7903,-140 580.7903,-151.8726 580.7903,-151.8726"/>
<polygon fill="#000000" stroke="#000000" points="577.2904,-151.8725 580.7903,-161.8726 584.2904,-151.8726 577.2904,-151.8725"/>
</g>
<!-- KeysPipe -->
<g id="node7" class="node">
<title>KeysPipe</title>
<polygon fill="#ffffb3" stroke="#000000" points="967.6545,-122 898.3455,-122 898.3455,-86 967.6545,-86 967.6545,-122"/>
<text text-anchor="middle" x="933" y="-99.8" font-family="Times,serif" font-size="14.00" fill="#000000">KeysPipe</text>
</g>
<!-- KeysPipe&#45;&gt;SnotifyModule -->
<g id="edge6" class="edge">
<title>KeysPipe&#45;&gt;SnotifyModule</title>
<path fill="none" stroke="#000000" d="M933,-122.1432C933,-128.4611 933,-134 933,-134 933,-134 568.1936,-134 568.1936,-134 568.1936,-134 568.1936,-151.8196 568.1936,-151.8196"/>
<polygon fill="#000000" stroke="#000000" points="564.6936,-151.8195 568.1936,-161.8196 571.6936,-151.8196 564.6936,-151.8195"/>
</g>
<!-- PromptComponent -->
<g id="node8" class="node">
<title>PromptComponent</title>
<polygon fill="#ffffb3" stroke="#000000" points="880.0576,-122 757.9424,-122 757.9424,-86 880.0576,-86 880.0576,-122"/>
<text text-anchor="middle" x="819" y="-99.8" font-family="Times,serif" font-size="14.00" fill="#000000">PromptComponent</text>
</g>
<!-- PromptComponent&#45;&gt;SnotifyModule -->
<g id="edge7" class="edge">
<title>PromptComponent&#45;&gt;SnotifyModule</title>
<path fill="none" stroke="#000000" d="M819,-122.1903C819,-125.5376 819,-128 819,-128 819,-128 555.5968,-128 555.5968,-128 555.5968,-128 555.5968,-151.8129 555.5968,-151.8129"/>
<polygon fill="#000000" stroke="#000000" points="552.0969,-151.8129 555.5968,-161.8129 559.0969,-151.813 552.0969,-151.8129"/>
</g>
<!-- SnotifyComponent -->
<g id="node9" class="node">
<title>SnotifyComponent</title>
<polygon fill="#ffffb3" stroke="#000000" points="739.0576,-122 616.9424,-122 616.9424,-86 739.0576,-86 739.0576,-122"/>
<text text-anchor="middle" x="678" y="-99.8" font-family="Times,serif" font-size="14.00" fill="#000000">SnotifyComponent</text>
</g>
<!-- SnotifyComponent&#45;&gt;SnotifyModule -->
<g id="edge8" class="edge">
<title>SnotifyComponent&#45;&gt;SnotifyModule</title>
<path fill="none" stroke="#000000" d="M616.8389,-104C611.4413,-104 607.9695,-104 607.9695,-104 607.9695,-104 607.9695,-180 607.9695,-180 607.9695,-180 603.5507,-180 603.5507,-180"/>
<polygon fill="#000000" stroke="#000000" points="603.5507,-176.5001 593.5507,-180 603.5506,-183.5001 603.5507,-176.5001"/>
</g>
<!-- ToastComponent -->
<g id="node10" class="node">
<title>ToastComponent</title>
<polygon fill="#ffffb3" stroke="#000000" points="599.4356,-122 486.5644,-122 486.5644,-86 599.4356,-86 599.4356,-122"/>
<text text-anchor="middle" x="543" y="-99.8" font-family="Times,serif" font-size="14.00" fill="#000000">ToastComponent</text>
</g>
<!-- ToastComponent&#45;&gt;SnotifyModule -->
<g id="edge9" class="edge">
<title>ToastComponent&#45;&gt;SnotifyModule</title>
<path fill="none" stroke="#000000" d="M543,-122.0109C543,-122.0109 543,-151.855 543,-151.855"/>
<polygon fill="#000000" stroke="#000000" points="539.5001,-151.8549 543,-161.855 546.5001,-151.855 539.5001,-151.8549"/>
</g>
<!-- TruncatePipe -->
<g id="node11" class="node">
<title>TruncatePipe</title>
<polygon fill="#ffffb3" stroke="#000000" points="468.1361,-122 377.8639,-122 377.8639,-86 468.1361,-86 468.1361,-122"/>
<text text-anchor="middle" x="423" y="-99.8" font-family="Times,serif" font-size="14.00" fill="#000000">TruncatePipe</text>
</g>
<!-- TruncatePipe&#45;&gt;SnotifyModule -->
<g id="edge10" class="edge">
<title>TruncatePipe&#45;&gt;SnotifyModule</title>
<path fill="none" stroke="#000000" d="M468.2535,-104C474.1019,-104 478.1052,-104 478.1052,-104 478.1052,-104 478.1052,-180 478.1052,-180 478.1052,-180 482.5074,-180 482.5074,-180"/>
<polygon fill="#000000" stroke="#000000" points="482.5075,-183.5001 492.5074,-180 482.5074,-176.5001 482.5075,-183.5001"/>
</g>
</g>
</svg>
