<?xml version="1.0" encoding="UTF-8" standalone="no"?>
<!DOCTYPE svg PUBLIC "-//W3C//DTD SVG 1.1//EN"
 "http://www.w3.org/Graphics/SVG/1.1/DTD/svg11.dtd">
<!-- Generated by graphviz version 2.40.1 (20161225.0304)
 -->
<!-- Title: dependencies Pages: 1 -->
<svg width="960pt" height="284pt"
 viewBox="0.00 0.00 960.00 284.00" xmlns="http://www.w3.org/2000/svg" xmlns:xlink="http://www.w3.org/1999/xlink">
<g id="graph0" class="graph" transform="scale(1 1) rotate(0) translate(4 280)">
<title>dependencies</title>
<polygon fill="#ffffff" stroke="transparent" points="-4,4 -4,-280 956,-280 956,4 -4,4"/>
<text text-anchor="start" x="455.0091" y="-42.4" font-family="sans-serif" font-weight="bold" font-size="14.00" fill="#000000">Legend</text>
<polygon fill="#ffffb3" stroke="transparent" points="242,-10 242,-30 262,-30 262,-10 242,-10"/>
<text text-anchor="start" x="265.629" y="-15.4" font-family="sans-serif" font-size="14.00" fill="#000000"> &#160;Declarations</text>
<polygon fill="#8dd3c7" stroke="transparent" points="355,-10 355,-30 375,-30 375,-10 355,-10"/>
<text text-anchor="start" x="378.7251" y="-15.4" font-family="sans-serif" font-size="14.00" fill="#000000"> &#160;Module</text>
<polygon fill="#80b1d3" stroke="transparent" points="441,-10 441,-30 461,-30 461,-10 441,-10"/>
<text text-anchor="start" x="464.7812" y="-15.4" font-family="sans-serif" font-size="14.00" fill="#000000"> &#160;Bootstrap</text>
<polygon fill="#fdb462" stroke="transparent" points="538,-10 538,-30 558,-30 558,-10 538,-10"/>
<text text-anchor="start" x="561.6732" y="-15.4" font-family="sans-serif" font-size="14.00" fill="#000000"> &#160;Providers</text>
<polygon fill="#fb8072" stroke="transparent" points="634,-10 634,-30 654,-30 654,-10 634,-10"/>
<text text-anchor="start" x="657.7258" y="-15.4" font-family="sans-serif" font-size="14.00" fill="#000000"> &#160;Exports</text>
<g id="clust1" class="cluster">
<title>cluster_SnotifyModule</title>
<polygon fill="none" stroke="#000000" stroke-dasharray="1,5" points="8,-70 8,-268 944,-268 944,-70 8,-70"/>
</g>
<g id="clust2" class="cluster">
<title>cluster_SnotifyModule_declarations</title>
<polygon fill="none" stroke="#000000" points="152,-78 152,-130 936,-130 936,-78 152,-78"/>
</g>
<g id="clust9" class="cluster">
<title>cluster_SnotifyModule_imports</title>
<polygon fill="none" stroke="#000000" points="16,-78 16,-130 144,-130 144,-78 16,-78"/>
</g>
<g id="clust10" class="cluster">
<title>cluster_SnotifyModule_exports</title>
<polygon fill="none" stroke="#000000" points="370,-208 370,-260 624,-260 624,-208 370,-208"/>
</g>
<!-- SnotifyComponent -->
<g id="node1" class="node">
<title>SnotifyComponent</title>
<polygon fill="#ffffb3" stroke="#000000" points="928.0576,-122 805.9424,-122 805.9424,-86 928.0576,-86 928.0576,-122"/>
<text text-anchor="middle" x="867" y="-99.8" font-family="Times,serif" font-size="14.00" fill="#000000">SnotifyComponent</text>
</g>
<!-- SnotifyModule -->
<g id="node7" class="node">
<title>SnotifyModule</title>
<polygon fill="#8dd3c7" stroke="#000000" points="539.2745,-187 536.2745,-191 515.2745,-191 512.2745,-187 438.7255,-187 438.7255,-151 539.2745,-151 539.2745,-187"/>
<text text-anchor="middle" x="489" y="-164.8" font-family="Times,serif" font-size="14.00" fill="#000000">SnotifyModule</text>
</g>
<!-- SnotifyComponent&#45;&gt;SnotifyModule -->
<g id="edge1" class="edge">
<title>SnotifyComponent&#45;&gt;SnotifyModule</title>
<path fill="none" stroke="#000000" d="M867,-122.2921C867,-144.2057 867,-178 867,-178 867,-178 549.5865,-178 549.5865,-178"/>
<polygon fill="#000000" stroke="#000000" points="549.5866,-174.5001 539.5865,-178 549.5865,-181.5001 549.5866,-174.5001"/>
</g>
<!-- ToastComponent -->
<g id="node2" class="node">
<title>ToastComponent</title>
<polygon fill="#ffffb3" stroke="#000000" points="788.4356,-122 675.5644,-122 675.5644,-86 788.4356,-86 788.4356,-122"/>
<text text-anchor="middle" x="732" y="-99.8" font-family="Times,serif" font-size="14.00" fill="#000000">ToastComponent</text>
</g>
<!-- ToastComponent&#45;&gt;SnotifyModule -->
<g id="edge2" class="edge">
<title>ToastComponent&#45;&gt;SnotifyModule</title>
<path fill="none" stroke="#000000" d="M732,-122.1061C732,-141.3391 732,-169 732,-169 732,-169 549.3498,-169 549.3498,-169"/>
<polygon fill="#000000" stroke="#000000" points="549.3498,-165.5001 539.3498,-169 549.3497,-172.5001 549.3498,-165.5001"/>
</g>
<!-- IconComponent -->
<g id="node3" class="node">
<title>IconComponent</title>
<polygon fill="#ffffb3" stroke="#000000" points="658.2078,-122 551.7922,-122 551.7922,-86 658.2078,-86 658.2078,-122"/>
<text text-anchor="middle" x="605" y="-99.8" font-family="Times,serif" font-size="14.00" fill="#000000">IconComponent</text>
</g>
<!-- IconComponent&#45;&gt;SnotifyModule -->
<g id="edge3" class="edge">
<title>IconComponent&#45;&gt;SnotifyModule</title>
<path fill="none" stroke="#000000" d="M583.9623,-122.027C583.9623,-138.3976 583.9623,-160 583.9623,-160 583.9623,-160 549.5396,-160 549.5396,-160"/>
<polygon fill="#000000" stroke="#000000" points="549.5396,-156.5001 539.5396,-160 549.5395,-163.5001 549.5396,-156.5001"/>
</g>
<!-- TruncatePipe -->
<g id="node4" class="node">
<title>TruncatePipe</title>
<polygon fill="#ffffb3" stroke="#000000" points="534.1361,-122 443.8639,-122 443.8639,-86 534.1361,-86 534.1361,-122"/>
<text text-anchor="middle" x="489" y="-99.8" font-family="Times,serif" font-size="14.00" fill="#000000">TruncatePipe</text>
</g>
<!-- TruncatePipe&#45;&gt;SnotifyModule -->
<g id="edge4" class="edge">
<title>TruncatePipe&#45;&gt;SnotifyModule</title>
<path fill="none" stroke="#000000" d="M489,-122.1061C489,-122.1061 489,-140.991 489,-140.991"/>
<polygon fill="#000000" stroke="#000000" points="485.5001,-140.9909 489,-150.991 492.5001,-140.991 485.5001,-140.9909"/>
</g>
<!-- ButtonsComponent -->
<g id="node5" class="node">
<title>ButtonsComponent</title>
<polygon fill="#ffffb3" stroke="#000000" points="425.3948,-122 300.6052,-122 300.6052,-86 425.3948,-86 425.3948,-122"/>
<text text-anchor="middle" x="363" y="-99.8" font-family="Times,serif" font-size="14.00" fill="#000000">ButtonsComponent</text>
</g>
<!-- ButtonsComponent&#45;&gt;SnotifyModule -->
<g id="edge5" class="edge">
<title>ButtonsComponent&#45;&gt;SnotifyModule</title>
<path fill="none" stroke="#000000" d="M401.6899,-122.027C401.6899,-138.3976 401.6899,-160 401.6899,-160 401.6899,-160 428.7172,-160 428.7172,-160"/>
<polygon fill="#000000" stroke="#000000" points="428.7172,-163.5001 438.7172,-160 428.7172,-156.5001 428.7172,-163.5001"/>
</g>
<!-- PromptComponent -->
<g id="node6" class="node">
<title>PromptComponent</title>
<polygon fill="#ffffb3" stroke="#000000" points="282.0576,-122 159.9424,-122 159.9424,-86 282.0576,-86 282.0576,-122"/>
<text text-anchor="middle" x="221" y="-99.8" font-family="Times,serif" font-size="14.00" fill="#000000">PromptComponent</text>
</g>
<!-- PromptComponent&#45;&gt;SnotifyModule -->
<g id="edge6" class="edge">
<title>PromptComponent&#45;&gt;SnotifyModule</title>
<path fill="none" stroke="#000000" d="M221,-122.1061C221,-141.3391 221,-169 221,-169 221,-169 428.5912,-169 428.5912,-169"/>
<polygon fill="#000000" stroke="#000000" points="428.5913,-172.5001 438.5912,-169 428.5912,-165.5001 428.5913,-172.5001"/>
</g>
<!-- SnotifyComponent  -->
<g id="node9" class="node">
<title>SnotifyComponent </title>
<polygon fill="#fb8072" stroke="#000000" points="616.0568,-252 489.9432,-252 489.9432,-216 616.0568,-216 616.0568,-252"/>
<text text-anchor="middle" x="553" y="-229.8" font-family="Times,serif" font-size="14.00" fill="#000000">SnotifyComponent </text>
</g>
<!-- SnotifyModule&#45;&gt;SnotifyComponent  -->
<g id="edge8" class="edge">
<title>SnotifyModule&#45;&gt;SnotifyComponent </title>
<path fill="none" stroke="#000000" stroke-dasharray="5,2" d="M514.6794,-187.1061C514.6794,-187.1061 514.6794,-205.991 514.6794,-205.991"/>
<polygon fill="#000000" stroke="#000000" points="511.1794,-205.9909 514.6794,-215.991 518.1794,-205.991 511.1794,-205.9909"/>
</g>
<!-- TruncatePipe  -->
<g id="node10" class="node">
<title>TruncatePipe </title>
<polygon fill="#fb8072" stroke="#000000" points="472.1355,-252 377.8645,-252 377.8645,-216 472.1355,-216 472.1355,-252"/>
<text text-anchor="middle" x="425" y="-229.8" font-family="Times,serif" font-size="14.00" fill="#000000">TruncatePipe </text>
</g>
<!-- SnotifyModule&#45;&gt;TruncatePipe  -->
<g id="edge9" class="edge">
<title>SnotifyModule&#45;&gt;TruncatePipe </title>
<path fill="none" stroke="#000000" stroke-dasharray="5,2" d="M455.3403,-187.1061C455.3403,-187.1061 455.3403,-205.991 455.3403,-205.991"/>
<polygon fill="#000000" stroke="#000000" points="451.8404,-205.9909 455.3403,-215.991 458.8404,-205.991 451.8404,-205.9909"/>
</g>
<!-- CommonModule -->
<g id="node8" class="node">
<title>CommonModule</title>
<polygon fill="#8dd3c7" stroke="#000000" points="135.6681,-122 132.6681,-126 111.6681,-126 108.6681,-122 24.3319,-122 24.3319,-86 135.6681,-86 135.6681,-122"/>
<text text-anchor="middle" x="80" y="-99.8" font-family="Times,serif" font-size="14.00" fill="#000000">CommonModule</text>
</g>
<!-- CommonModule&#45;&gt;SnotifyModule -->
<g id="edge7" class="edge">
<title>CommonModule&#45;&gt;SnotifyModule</title>
<path fill="none" stroke="#000000" d="M80,-122.2921C80,-144.2057 80,-178 80,-178 80,-178 428.4384,-178 428.4384,-178"/>
<polygon fill="#000000" stroke="#000000" points="428.4384,-181.5001 438.4384,-178 428.4383,-174.5001 428.4384,-181.5001"/>
</g>
</g>
</svg>
