<?xml version="1.0" encoding="UTF-8" standalone="no"?>
<!DOCTYPE svg PUBLIC "-//W3C//DTD SVG 1.1//EN"
 "http://www.w3.org/Graphics/SVG/1.1/DTD/svg11.dtd">
<!-- Generated by graphviz version 2.40.1 (20161225.0304)
 -->
<!-- Title: dependencies Pages: 1 -->
<svg width="912pt" height="284pt"
 viewBox="0.00 0.00 912.00 284.00" xmlns="http://www.w3.org/2000/svg" xmlns:xlink="http://www.w3.org/1999/xlink">
<g id="graph0" class="graph" transform="scale(1 1) rotate(0) translate(4 280)">
<title>dependencies</title>
<polygon fill="#ffffff" stroke="transparent" points="-4,4 -4,-280 908,-280 908,4 -4,4"/>
<text text-anchor="start" x="431.0091" y="-42.4" font-family="sans-serif" font-weight="bold" font-size="14.00" fill="#000000">Legend</text>
<polygon fill="#ffffb3" stroke="transparent" points="218,-10 218,-30 238,-30 238,-10 218,-10"/>
<text text-anchor="start" x="241.629" y="-15.4" font-family="sans-serif" font-size="14.00" fill="#000000"> &#160;Declarations</text>
<polygon fill="#8dd3c7" stroke="transparent" points="331,-10 331,-30 351,-30 351,-10 331,-10"/>
<text text-anchor="start" x="354.7251" y="-15.4" font-family="sans-serif" font-size="14.00" fill="#000000"> &#160;Module</text>
<polygon fill="#80b1d3" stroke="transparent" points="417,-10 417,-30 437,-30 437,-10 417,-10"/>
<text text-anchor="start" x="440.7812" y="-15.4" font-family="sans-serif" font-size="14.00" fill="#000000"> &#160;Bootstrap</text>
<polygon fill="#fdb462" stroke="transparent" points="514,-10 514,-30 534,-30 534,-10 514,-10"/>
<text text-anchor="start" x="537.6732" y="-15.4" font-family="sans-serif" font-size="14.00" fill="#000000"> &#160;Providers</text>
<polygon fill="#fb8072" stroke="transparent" points="610,-10 610,-30 630,-30 630,-10 610,-10"/>
<text text-anchor="start" x="633.7258" y="-15.4" font-family="sans-serif" font-size="14.00" fill="#000000"> &#160;Exports</text>
<g id="clust1" class="cluster">
<title>cluster_SnotifyModule</title>
<polygon fill="none" stroke="#000000" stroke-dasharray="1,5" points="8,-70 8,-268 896,-268 896,-70 8,-70"/>
</g>
<g id="clust2" class="cluster">
<title>cluster_SnotifyModule_declarations</title>
<polygon fill="none" stroke="#000000" points="16,-78 16,-130 888,-130 888,-78 16,-78"/>
</g>
<g id="clust11" class="cluster">
<title>cluster_SnotifyModule_exports</title>
<polygon fill="none" stroke="#000000" points="294,-208 294,-260 640,-260 640,-208 294,-208"/>
</g>
<!-- SnotifyComponent -->
<g id="node1" class="node">
<title>SnotifyComponent</title>
<polygon fill="#ffffb3" stroke="#000000" points="880.0576,-122 757.9424,-122 757.9424,-86 880.0576,-86 880.0576,-122"/>
<text text-anchor="middle" x="819" y="-99.8" font-family="Times,serif" font-size="14.00" fill="#000000">SnotifyComponent</text>
</g>
<!-- SnotifyModule -->
<g id="node8" class="node">
<title>SnotifyModule</title>
<polygon fill="#8dd3c7" stroke="#000000" points="491.2745,-187 488.2745,-191 467.2745,-191 464.2745,-187 390.7255,-187 390.7255,-151 491.2745,-151 491.2745,-187"/>
<text text-anchor="middle" x="441" y="-164.8" font-family="Times,serif" font-size="14.00" fill="#000000">SnotifyModule</text>
</g>
<!-- SnotifyComponent&#45;&gt;SnotifyModule -->
<g id="edge1" class="edge">
<title>SnotifyComponent&#45;&gt;SnotifyModule</title>
<path fill="none" stroke="#000000" d="M819,-122.1289C819,-142.5724 819,-173 819,-173 819,-173 501.5865,-173 501.5865,-173"/>
<polygon fill="#000000" stroke="#000000" points="501.5866,-169.5001 491.5865,-173 501.5865,-176.5001 501.5866,-169.5001"/>
</g>
<!-- ToastComponent -->
<g id="node2" class="node">
<title>ToastComponent</title>
<polygon fill="#ffffb3" stroke="#000000" points="740.4356,-122 627.5644,-122 627.5644,-86 740.4356,-86 740.4356,-122"/>
<text text-anchor="middle" x="684" y="-99.8" font-family="Times,serif" font-size="14.00" fill="#000000">ToastComponent</text>
</g>
<!-- ToastComponent&#45;&gt;SnotifyModule -->
<g id="edge2" class="edge">
<title>ToastComponent&#45;&gt;SnotifyModule</title>
<path fill="none" stroke="#000000" d="M686.1229,-122.2667C686.1229,-140.5552 686.1229,-166 686.1229,-166 686.1229,-166 501.4924,-166 501.4924,-166"/>
<polygon fill="#000000" stroke="#000000" points="501.4924,-162.5001 491.4924,-166 501.4924,-169.5001 501.4924,-162.5001"/>
</g>
<!-- IconComponent -->
<g id="node3" class="node">
<title>IconComponent</title>
<polygon fill="#ffffb3" stroke="#000000" points="610.2078,-122 503.7922,-122 503.7922,-86 610.2078,-86 610.2078,-122"/>
<text text-anchor="middle" x="557" y="-99.8" font-family="Times,serif" font-size="14.00" fill="#000000">IconComponent</text>
</g>
<!-- IconComponent&#45;&gt;SnotifyModule -->
<g id="edge3" class="edge">
<title>IconComponent&#45;&gt;SnotifyModule</title>
<path fill="none" stroke="#000000" d="M575.3931,-122.0091C575.3931,-138.0494 575.3931,-159 575.3931,-159 575.3931,-159 501.4254,-159 501.4254,-159"/>
<polygon fill="#000000" stroke="#000000" points="501.4254,-155.5001 491.4254,-159 501.4253,-162.5001 501.4254,-155.5001"/>
</g>
<!-- TruncatePipe -->
<g id="node4" class="node">
<title>TruncatePipe</title>
<polygon fill="#ffffb3" stroke="#000000" points="486.1361,-122 395.8639,-122 395.8639,-86 486.1361,-86 486.1361,-122"/>
<text text-anchor="middle" x="441" y="-99.8" font-family="Times,serif" font-size="14.00" fill="#000000">TruncatePipe</text>
</g>
<!-- TruncatePipe&#45;&gt;SnotifyModule -->
<g id="edge4" class="edge">
<title>TruncatePipe&#45;&gt;SnotifyModule</title>
<path fill="none" stroke="#000000" d="M441,-122.1061C441,-122.1061 441,-140.991 441,-140.991"/>
<polygon fill="#000000" stroke="#000000" points="437.5001,-140.9909 441,-150.991 444.5001,-140.991 437.5001,-140.9909"/>
</g>
<!-- ButtonsComponent -->
<g id="node5" class="node">
<title>ButtonsComponent</title>
<polygon fill="#ffffb3" stroke="#000000" points="377.3948,-122 252.6052,-122 252.6052,-86 377.3948,-86 377.3948,-122"/>
<text text-anchor="middle" x="315" y="-99.8" font-family="Times,serif" font-size="14.00" fill="#000000">ButtonsComponent</text>
</g>
<!-- ButtonsComponent&#45;&gt;SnotifyModule -->
<g id="edge5" class="edge">
<title>ButtonsComponent&#45;&gt;SnotifyModule</title>
<path fill="none" stroke="#000000" d="M326.8077,-122.0091C326.8077,-138.0494 326.8077,-159 326.8077,-159 326.8077,-159 380.5812,-159 380.5812,-159"/>
<polygon fill="#000000" stroke="#000000" points="380.5812,-162.5001 390.5812,-159 380.5812,-155.5001 380.5812,-162.5001"/>
</g>
<!-- PromptComponent -->
<g id="node6" class="node">
<title>PromptComponent</title>
<polygon fill="#ffffb3" stroke="#000000" points="234.0576,-122 111.9424,-122 111.9424,-86 234.0576,-86 234.0576,-122"/>
<text text-anchor="middle" x="173" y="-99.8" font-family="Times,serif" font-size="14.00" fill="#000000">PromptComponent</text>
</g>
<!-- PromptComponent&#45;&gt;SnotifyModule -->
<g id="edge6" class="edge">
<title>PromptComponent&#45;&gt;SnotifyModule</title>
<path fill="none" stroke="#000000" d="M173,-122.2667C173,-140.5552 173,-166 173,-166 173,-166 380.5912,-166 380.5912,-166"/>
<polygon fill="#000000" stroke="#000000" points="380.5913,-169.5001 390.5912,-166 380.5912,-162.5001 380.5913,-169.5001"/>
</g>
<!-- KeysPipe -->
<g id="node7" class="node">
<title>KeysPipe</title>
<polygon fill="#ffffb3" stroke="#000000" points="93.6545,-122 24.3455,-122 24.3455,-86 93.6545,-86 93.6545,-122"/>
<text text-anchor="middle" x="59" y="-99.8" font-family="Times,serif" font-size="14.00" fill="#000000">KeysPipe</text>
</g>
<!-- KeysPipe&#45;&gt;SnotifyModule -->
<g id="edge7" class="edge">
<title>KeysPipe&#45;&gt;SnotifyModule</title>
<path fill="none" stroke="#000000" d="M59,-122.1289C59,-142.5724 59,-173 59,-173 59,-173 380.6674,-173 380.6674,-173"/>
<polygon fill="#000000" stroke="#000000" points="380.6674,-176.5001 390.6674,-173 380.6673,-169.5001 380.6674,-176.5001"/>
</g>
<!-- SnotifyComponent  -->
<g id="node9" class="node">
<title>SnotifyComponent </title>
<polygon fill="#fb8072" stroke="#000000" points="632.0568,-252 505.9432,-252 505.9432,-216 632.0568,-216 632.0568,-252"/>
<text text-anchor="middle" x="569" y="-229.8" font-family="Times,serif" font-size="14.00" fill="#000000">SnotifyComponent </text>
</g>
<!-- SnotifyModule&#45;&gt;SnotifyComponent  -->
<g id="edge8" class="edge">
<title>SnotifyModule&#45;&gt;SnotifyComponent </title>
<path fill="none" stroke="#000000" stroke-dasharray="5,2" d="M491.4252,-180C516.1496,-180 540.6823,-180 540.6823,-180 540.6823,-180 540.6823,-205.7181 540.6823,-205.7181"/>
<polygon fill="#000000" stroke="#000000" points="537.1824,-205.718 540.6823,-215.7181 544.1824,-205.7181 537.1824,-205.718"/>
</g>
<!-- TruncatePipe  -->
<g id="node10" class="node">
<title>TruncatePipe </title>
<polygon fill="#fb8072" stroke="#000000" points="488.1355,-252 393.8645,-252 393.8645,-216 488.1355,-216 488.1355,-252"/>
<text text-anchor="middle" x="441" y="-229.8" font-family="Times,serif" font-size="14.00" fill="#000000">TruncatePipe </text>
</g>
<!-- SnotifyModule&#45;&gt;TruncatePipe  -->
<g id="edge9" class="edge">
<title>SnotifyModule&#45;&gt;TruncatePipe </title>
<path fill="none" stroke="#000000" stroke-dasharray="5,2" d="M441,-187.1061C441,-187.1061 441,-205.991 441,-205.991"/>
<polygon fill="#000000" stroke="#000000" points="437.5001,-205.9909 441,-215.991 444.5001,-205.991 437.5001,-205.9909"/>
</g>
<!-- KeysPipe  -->
<g id="node11" class="node">
<title>KeysPipe </title>
<polygon fill="#fb8072" stroke="#000000" points="375.6538,-252 302.3462,-252 302.3462,-216 375.6538,-216 375.6538,-252"/>
<text text-anchor="middle" x="339" y="-229.8" font-family="Times,serif" font-size="14.00" fill="#000000">KeysPipe </text>
</g>
<!-- SnotifyModule&#45;&gt;KeysPipe  -->
<g id="edge10" class="edge">
<title>SnotifyModule&#45;&gt;KeysPipe </title>
<path fill="none" stroke="#000000" stroke-dasharray="5,2" d="M390.5832,-180C370.1118,-180 351.1923,-180 351.1923,-180 351.1923,-180 351.1923,-205.7181 351.1923,-205.7181"/>
<polygon fill="#000000" stroke="#000000" points="347.6924,-205.718 351.1923,-215.7181 354.6924,-205.7181 347.6924,-205.718"/>
</g>
</g>
</svg>
