<?xml version="1.0" encoding="UTF-8" standalone="no"?>
<!DOCTYPE svg PUBLIC "-//W3C//DTD SVG 1.1//EN"
 "http://www.w3.org/Graphics/SVG/1.1/DTD/svg11.dtd">
<!-- Generated by graphviz version 2.40.1 (20161225.0304)
 -->
<!-- Title: dependencies Pages: 1 -->
<svg width="824pt" height="284pt"
 viewBox="0.00 0.00 824.00 284.00" xmlns="http://www.w3.org/2000/svg" xmlns:xlink="http://www.w3.org/1999/xlink">
<g id="graph0" class="graph" transform="scale(1 1) rotate(0) translate(4 280)">
<title>dependencies</title>
<polygon fill="#ffffff" stroke="transparent" points="-4,4 -4,-280 820,-280 820,4 -4,4"/>
<text text-anchor="start" x="387.0091" y="-42.4" font-family="sans-serif" font-weight="bold" font-size="14.00" fill="#000000">Legend</text>
<polygon fill="#ffffb3" stroke="transparent" points="174,-10 174,-30 194,-30 194,-10 174,-10"/>
<text text-anchor="start" x="197.629" y="-15.4" font-family="sans-serif" font-size="14.00" fill="#000000"> &#160;Declarations</text>
<polygon fill="#8dd3c7" stroke="transparent" points="287,-10 287,-30 307,-30 307,-10 287,-10"/>
<text text-anchor="start" x="310.7251" y="-15.4" font-family="sans-serif" font-size="14.00" fill="#000000"> &#160;Module</text>
<polygon fill="#80b1d3" stroke="transparent" points="373,-10 373,-30 393,-30 393,-10 373,-10"/>
<text text-anchor="start" x="396.7812" y="-15.4" font-family="sans-serif" font-size="14.00" fill="#000000"> &#160;Bootstrap</text>
<polygon fill="#fdb462" stroke="transparent" points="470,-10 470,-30 490,-30 490,-10 470,-10"/>
<text text-anchor="start" x="493.6732" y="-15.4" font-family="sans-serif" font-size="14.00" fill="#000000"> &#160;Providers</text>
<polygon fill="#fb8072" stroke="transparent" points="566,-10 566,-30 586,-30 586,-10 566,-10"/>
<text text-anchor="start" x="589.7258" y="-15.4" font-family="sans-serif" font-size="14.00" fill="#000000"> &#160;Exports</text>
<g id="clust1" class="cluster">
<title>cluster_SnotifyModule</title>
<polygon fill="none" stroke="#000000" stroke-dasharray="1,5" points="8,-70 8,-268 808,-268 808,-70 8,-70"/>
</g>
<g id="clust2" class="cluster">
<title>cluster_SnotifyModule_declarations</title>
<polygon fill="none" stroke="#000000" points="16,-78 16,-130 800,-130 800,-78 16,-78"/>
</g>
<g id="clust10" class="cluster">
<title>cluster_SnotifyModule_exports</title>
<polygon fill="none" stroke="#000000" points="292,-208 292,-260 546,-260 546,-208 292,-208"/>
</g>
<!-- SnotifyComponent -->
<g id="node1" class="node">
<title>SnotifyComponent</title>
<polygon fill="#ffffb3" stroke="#000000" points="792.0576,-122 669.9424,-122 669.9424,-86 792.0576,-86 792.0576,-122"/>
<text text-anchor="middle" x="731" y="-99.8" font-family="Times,serif" font-size="14.00" fill="#000000">SnotifyComponent</text>
</g>
<!-- SnotifyModule -->
<g id="node7" class="node">
<title>SnotifyModule</title>
<polygon fill="#8dd3c7" stroke="#000000" points="461.2745,-187 458.2745,-191 437.2745,-191 434.2745,-187 360.7255,-187 360.7255,-151 461.2745,-151 461.2745,-187"/>
<text text-anchor="middle" x="411" y="-164.8" font-family="Times,serif" font-size="14.00" fill="#000000">SnotifyModule</text>
</g>
<!-- SnotifyComponent&#45;&gt;SnotifyModule -->
<g id="edge1" class="edge">
<title>SnotifyComponent&#45;&gt;SnotifyModule</title>
<path fill="none" stroke="#000000" d="M731,-122.2843C731,-143.3211 731,-175 731,-175 731,-175 471.352,-175 471.352,-175"/>
<polygon fill="#000000" stroke="#000000" points="471.3521,-171.5001 461.352,-175 471.352,-178.5001 471.3521,-171.5001"/>
</g>
<!-- ToastComponent -->
<g id="node2" class="node">
<title>ToastComponent</title>
<polygon fill="#ffffb3" stroke="#000000" points="652.4356,-122 539.5644,-122 539.5644,-86 652.4356,-86 652.4356,-122"/>
<text text-anchor="middle" x="596" y="-99.8" font-family="Times,serif" font-size="14.00" fill="#000000">ToastComponent</text>
</g>
<!-- ToastComponent&#45;&gt;SnotifyModule -->
<g id="edge2" class="edge">
<title>ToastComponent&#45;&gt;SnotifyModule</title>
<path fill="none" stroke="#000000" d="M596,-122.0225C596,-139.3734 596,-163 596,-163 596,-163 471.5521,-163 471.5521,-163"/>
<polygon fill="#000000" stroke="#000000" points="471.5521,-159.5001 461.5521,-163 471.552,-166.5001 471.5521,-159.5001"/>
</g>
<!-- IconComponent -->
<g id="node3" class="node">
<title>IconComponent</title>
<polygon fill="#ffffb3" stroke="#000000" points="522.2078,-122 415.7922,-122 415.7922,-86 522.2078,-86 522.2078,-122"/>
<text text-anchor="middle" x="469" y="-99.8" font-family="Times,serif" font-size="14.00" fill="#000000">IconComponent</text>
</g>
<!-- IconComponent&#45;&gt;SnotifyModule -->
<g id="edge3" class="edge">
<title>IconComponent&#45;&gt;SnotifyModule</title>
<path fill="none" stroke="#000000" d="M438.6417,-122.1061C438.6417,-122.1061 438.6417,-140.991 438.6417,-140.991"/>
<polygon fill="#000000" stroke="#000000" points="435.1417,-140.9909 438.6417,-150.991 442.1417,-140.991 435.1417,-140.9909"/>
</g>
<!-- TruncatePipe -->
<g id="node4" class="node">
<title>TruncatePipe</title>
<polygon fill="#ffffb3" stroke="#000000" points="398.1361,-122 307.8639,-122 307.8639,-86 398.1361,-86 398.1361,-122"/>
<text text-anchor="middle" x="353" y="-99.8" font-family="Times,serif" font-size="14.00" fill="#000000">TruncatePipe</text>
</g>
<!-- TruncatePipe&#45;&gt;SnotifyModule -->
<g id="edge4" class="edge">
<title>TruncatePipe&#45;&gt;SnotifyModule</title>
<path fill="none" stroke="#000000" d="M379.4653,-122.1061C379.4653,-122.1061 379.4653,-140.991 379.4653,-140.991"/>
<polygon fill="#000000" stroke="#000000" points="375.9654,-140.9909 379.4653,-150.991 382.9654,-140.991 375.9654,-140.9909"/>
</g>
<!-- ButtonsComponent -->
<g id="node5" class="node">
<title>ButtonsComponent</title>
<polygon fill="#ffffb3" stroke="#000000" points="289.3948,-122 164.6052,-122 164.6052,-86 289.3948,-86 289.3948,-122"/>
<text text-anchor="middle" x="227" y="-99.8" font-family="Times,serif" font-size="14.00" fill="#000000">ButtonsComponent</text>
</g>
<!-- ButtonsComponent&#45;&gt;SnotifyModule -->
<g id="edge5" class="edge">
<title>ButtonsComponent&#45;&gt;SnotifyModule</title>
<path fill="none" stroke="#000000" d="M227,-122.0225C227,-139.3734 227,-163 227,-163 227,-163 350.7212,-163 350.7212,-163"/>
<polygon fill="#000000" stroke="#000000" points="350.7212,-166.5001 360.7212,-163 350.7212,-159.5001 350.7212,-166.5001"/>
</g>
<!-- PromptComponent -->
<g id="node6" class="node">
<title>PromptComponent</title>
<polygon fill="#ffffb3" stroke="#000000" points="146.0576,-122 23.9424,-122 23.9424,-86 146.0576,-86 146.0576,-122"/>
<text text-anchor="middle" x="85" y="-99.8" font-family="Times,serif" font-size="14.00" fill="#000000">PromptComponent</text>
</g>
<!-- PromptComponent&#45;&gt;SnotifyModule -->
<g id="edge6" class="edge">
<title>PromptComponent&#45;&gt;SnotifyModule</title>
<path fill="none" stroke="#000000" d="M85,-122.2843C85,-143.3211 85,-175 85,-175 85,-175 350.4202,-175 350.4202,-175"/>
<polygon fill="#000000" stroke="#000000" points="350.4202,-178.5001 360.4202,-175 350.4202,-171.5001 350.4202,-178.5001"/>
</g>
<!-- SnotifyComponent  -->
<g id="node8" class="node">
<title>SnotifyComponent </title>
<polygon fill="#fb8072" stroke="#000000" points="538.0568,-252 411.9432,-252 411.9432,-216 538.0568,-216 538.0568,-252"/>
<text text-anchor="middle" x="475" y="-229.8" font-family="Times,serif" font-size="14.00" fill="#000000">SnotifyComponent </text>
</g>
<!-- SnotifyModule&#45;&gt;SnotifyComponent  -->
<g id="edge7" class="edge">
<title>SnotifyModule&#45;&gt;SnotifyComponent </title>
<path fill="none" stroke="#000000" stroke-dasharray="5,2" d="M436.6794,-187.1061C436.6794,-187.1061 436.6794,-205.991 436.6794,-205.991"/>
<polygon fill="#000000" stroke="#000000" points="433.1794,-205.9909 436.6794,-215.991 440.1794,-205.991 433.1794,-205.9909"/>
</g>
<!-- TruncatePipe  -->
<g id="node9" class="node">
<title>TruncatePipe </title>
<polygon fill="#fb8072" stroke="#000000" points="394.1355,-252 299.8645,-252 299.8645,-216 394.1355,-216 394.1355,-252"/>
<text text-anchor="middle" x="347" y="-229.8" font-family="Times,serif" font-size="14.00" fill="#000000">TruncatePipe </text>
</g>
<!-- SnotifyModule&#45;&gt;TruncatePipe  -->
<g id="edge8" class="edge">
<title>SnotifyModule&#45;&gt;TruncatePipe </title>
<path fill="none" stroke="#000000" stroke-dasharray="5,2" d="M377.3403,-187.1061C377.3403,-187.1061 377.3403,-205.991 377.3403,-205.991"/>
<polygon fill="#000000" stroke="#000000" points="373.8404,-205.9909 377.3403,-215.991 380.8404,-205.991 373.8404,-205.9909"/>
</g>
</g>
</svg>
