<?xml version="1.0" encoding="UTF-8" standalone="no"?>
<!DOCTYPE svg PUBLIC "-//W3C//DTD SVG 1.1//EN"
 "http://www.w3.org/Graphics/SVG/1.1/DTD/svg11.dtd">
<!-- Generated by graphviz version 2.40.1 (20161225.0304)
 -->
<!-- Title: dependencies Pages: 1 -->
<svg width="788pt" height="284pt"
 viewBox="0.00 0.00 788.00 284.00" xmlns="http://www.w3.org/2000/svg" xmlns:xlink="http://www.w3.org/1999/xlink">
<g id="graph0" class="graph" transform="scale(1 1) rotate(0) translate(4 280)">
<title>dependencies</title>
<polygon fill="#ffffff" stroke="transparent" points="-4,4 -4,-280 784,-280 784,4 -4,4"/>
<text text-anchor="start" x="369.0091" y="-42.4" font-family="sans-serif" font-weight="bold" font-size="14.00" fill="#000000">Legend</text>
<polygon fill="#ffffb3" stroke="transparent" points="156,-10 156,-30 176,-30 176,-10 156,-10"/>
<text text-anchor="start" x="179.629" y="-15.4" font-family="sans-serif" font-size="14.00" fill="#000000"> &#160;Declarations</text>
<polygon fill="#8dd3c7" stroke="transparent" points="269,-10 269,-30 289,-30 289,-10 269,-10"/>
<text text-anchor="start" x="292.7251" y="-15.4" font-family="sans-serif" font-size="14.00" fill="#000000"> &#160;Module</text>
<polygon fill="#80b1d3" stroke="transparent" points="355,-10 355,-30 375,-30 375,-10 355,-10"/>
<text text-anchor="start" x="378.7812" y="-15.4" font-family="sans-serif" font-size="14.00" fill="#000000"> &#160;Bootstrap</text>
<polygon fill="#fdb462" stroke="transparent" points="452,-10 452,-30 472,-30 472,-10 452,-10"/>
<text text-anchor="start" x="475.6732" y="-15.4" font-family="sans-serif" font-size="14.00" fill="#000000"> &#160;Providers</text>
<polygon fill="#fb8072" stroke="transparent" points="548,-10 548,-30 568,-30 568,-10 548,-10"/>
<text text-anchor="start" x="571.7258" y="-15.4" font-family="sans-serif" font-size="14.00" fill="#000000"> &#160;Exports</text>
<g id="clust1" class="cluster">
<title>cluster_SnotifyModule</title>
<polygon fill="none" stroke="#000000" stroke-dasharray="1,5" points="8,-70 8,-268 772,-268 772,-70 8,-70"/>
</g>
<g id="clust2" class="cluster">
<title>cluster_SnotifyModule_declarations</title>
<polygon fill="none" stroke="#000000" points="16,-78 16,-130 764,-130 764,-78 16,-78"/>
</g>
<g id="clust10" class="cluster">
<title>cluster_SnotifyModule_exports</title>
<polygon fill="none" stroke="#000000" points="211,-208 211,-260 557,-260 557,-208 211,-208"/>
</g>
<!-- ButtonsComponent -->
<g id="node1" class="node">
<title>ButtonsComponent</title>
<polygon fill="#ffffb3" stroke="#000000" points="756.3948,-122 631.6052,-122 631.6052,-86 756.3948,-86 756.3948,-122"/>
<text text-anchor="middle" x="694" y="-99.8" font-family="Times,serif" font-size="14.00" fill="#000000">ButtonsComponent</text>
</g>
<!-- SnotifyModule -->
<g id="node7" class="node">
<title>SnotifyModule</title>
<polygon fill="#8dd3c7" stroke="#000000" points="444.2745,-187 441.2745,-191 420.2745,-191 417.2745,-187 343.7255,-187 343.7255,-151 444.2745,-151 444.2745,-187"/>
<text text-anchor="middle" x="394" y="-164.8" font-family="Times,serif" font-size="14.00" fill="#000000">SnotifyModule</text>
</g>
<!-- ButtonsComponent&#45;&gt;SnotifyModule -->
<g id="edge1" class="edge">
<title>ButtonsComponent&#45;&gt;SnotifyModule</title>
<path fill="none" stroke="#000000" d="M694,-122.1061C694,-141.3391 694,-169 694,-169 694,-169 454.5517,-169 454.5517,-169"/>
<polygon fill="#000000" stroke="#000000" points="454.5517,-165.5001 444.5517,-169 454.5516,-172.5001 454.5517,-165.5001"/>
</g>
<!-- KeysPipe -->
<g id="node2" class="node">
<title>KeysPipe</title>
<polygon fill="#ffffb3" stroke="#000000" points="613.6545,-122 544.3455,-122 544.3455,-86 613.6545,-86 613.6545,-122"/>
<text text-anchor="middle" x="579" y="-99.8" font-family="Times,serif" font-size="14.00" fill="#000000">KeysPipe</text>
</g>
<!-- KeysPipe&#45;&gt;SnotifyModule -->
<g id="edge2" class="edge">
<title>KeysPipe&#45;&gt;SnotifyModule</title>
<path fill="none" stroke="#000000" d="M581.2018,-122.027C581.2018,-138.3976 581.2018,-160 581.2018,-160 581.2018,-160 454.6595,-160 454.6595,-160"/>
<polygon fill="#000000" stroke="#000000" points="454.6595,-156.5001 444.6595,-160 454.6595,-163.5001 454.6595,-156.5001"/>
</g>
<!-- PromptComponent -->
<g id="node3" class="node">
<title>PromptComponent</title>
<polygon fill="#ffffb3" stroke="#000000" points="526.0576,-122 403.9424,-122 403.9424,-86 526.0576,-86 526.0576,-122"/>
<text text-anchor="middle" x="465" y="-99.8" font-family="Times,serif" font-size="14.00" fill="#000000">PromptComponent</text>
</g>
<!-- PromptComponent&#45;&gt;SnotifyModule -->
<g id="edge3" class="edge">
<title>PromptComponent&#45;&gt;SnotifyModule</title>
<path fill="none" stroke="#000000" d="M424.0544,-122.1061C424.0544,-122.1061 424.0544,-140.991 424.0544,-140.991"/>
<polygon fill="#000000" stroke="#000000" points="420.5544,-140.9909 424.0544,-150.991 427.5544,-140.991 420.5544,-140.9909"/>
</g>
<!-- SnotifyComponent -->
<g id="node4" class="node">
<title>SnotifyComponent</title>
<polygon fill="#ffffb3" stroke="#000000" points="385.0576,-122 262.9424,-122 262.9424,-86 385.0576,-86 385.0576,-122"/>
<text text-anchor="middle" x="324" y="-99.8" font-family="Times,serif" font-size="14.00" fill="#000000">SnotifyComponent</text>
</g>
<!-- SnotifyComponent&#45;&gt;SnotifyModule -->
<g id="edge4" class="edge">
<title>SnotifyComponent&#45;&gt;SnotifyModule</title>
<path fill="none" stroke="#000000" d="M364.4457,-122.1061C364.4457,-122.1061 364.4457,-140.991 364.4457,-140.991"/>
<polygon fill="#000000" stroke="#000000" points="360.9457,-140.9909 364.4457,-150.991 367.9457,-140.991 360.9457,-140.9909"/>
</g>
<!-- ToastComponent -->
<g id="node5" class="node">
<title>ToastComponent</title>
<polygon fill="#ffffb3" stroke="#000000" points="245.4356,-122 132.5644,-122 132.5644,-86 245.4356,-86 245.4356,-122"/>
<text text-anchor="middle" x="189" y="-99.8" font-family="Times,serif" font-size="14.00" fill="#000000">ToastComponent</text>
</g>
<!-- ToastComponent&#45;&gt;SnotifyModule -->
<g id="edge5" class="edge">
<title>ToastComponent&#45;&gt;SnotifyModule</title>
<path fill="none" stroke="#000000" d="M232.0749,-122.027C232.0749,-138.3976 232.0749,-160 232.0749,-160 232.0749,-160 333.6535,-160 333.6535,-160"/>
<polygon fill="#000000" stroke="#000000" points="333.6535,-163.5001 343.6535,-160 333.6534,-156.5001 333.6535,-163.5001"/>
</g>
<!-- TruncatePipe -->
<g id="node6" class="node">
<title>TruncatePipe</title>
<polygon fill="#ffffb3" stroke="#000000" points="114.1361,-122 23.8639,-122 23.8639,-86 114.1361,-86 114.1361,-122"/>
<text text-anchor="middle" x="69" y="-99.8" font-family="Times,serif" font-size="14.00" fill="#000000">TruncatePipe</text>
</g>
<!-- TruncatePipe&#45;&gt;SnotifyModule -->
<g id="edge6" class="edge">
<title>TruncatePipe&#45;&gt;SnotifyModule</title>
<path fill="none" stroke="#000000" d="M69,-122.1061C69,-141.3391 69,-169 69,-169 69,-169 333.5753,-169 333.5753,-169"/>
<polygon fill="#000000" stroke="#000000" points="333.5754,-172.5001 343.5753,-169 333.5753,-165.5001 333.5754,-172.5001"/>
</g>
<!-- KeysPipe  -->
<g id="node8" class="node">
<title>KeysPipe </title>
<polygon fill="#fb8072" stroke="#000000" points="548.6538,-252 475.3462,-252 475.3462,-216 548.6538,-216 548.6538,-252"/>
<text text-anchor="middle" x="512" y="-229.8" font-family="Times,serif" font-size="14.00" fill="#000000">KeysPipe </text>
</g>
<!-- SnotifyModule&#45;&gt;KeysPipe  -->
<g id="edge7" class="edge">
<title>SnotifyModule&#45;&gt;KeysPipe </title>
<path fill="none" stroke="#000000" stroke-dasharray="5,2" d="M444.2966,-178C472.0104,-178 500.8508,-178 500.8508,-178 500.8508,-178 500.8508,-205.973 500.8508,-205.973"/>
<polygon fill="#000000" stroke="#000000" points="497.3509,-205.973 500.8508,-215.973 504.3509,-205.973 497.3509,-205.973"/>
</g>
<!-- SnotifyComponent  -->
<g id="node9" class="node">
<title>SnotifyComponent </title>
<polygon fill="#fb8072" stroke="#000000" points="457.0568,-252 330.9432,-252 330.9432,-216 457.0568,-216 457.0568,-252"/>
<text text-anchor="middle" x="394" y="-229.8" font-family="Times,serif" font-size="14.00" fill="#000000">SnotifyComponent </text>
</g>
<!-- SnotifyModule&#45;&gt;SnotifyComponent  -->
<g id="edge8" class="edge">
<title>SnotifyModule&#45;&gt;SnotifyComponent </title>
<path fill="none" stroke="#000000" stroke-dasharray="5,2" d="M394,-187.1061C394,-187.1061 394,-205.991 394,-205.991"/>
<polygon fill="#000000" stroke="#000000" points="390.5001,-205.9909 394,-215.991 397.5001,-205.991 390.5001,-205.9909"/>
</g>
<!-- TruncatePipe  -->
<g id="node10" class="node">
<title>TruncatePipe </title>
<polygon fill="#fb8072" stroke="#000000" points="313.1355,-252 218.8645,-252 218.8645,-216 313.1355,-216 313.1355,-252"/>
<text text-anchor="middle" x="266" y="-229.8" font-family="Times,serif" font-size="14.00" fill="#000000">TruncatePipe </text>
</g>
<!-- SnotifyModule&#45;&gt;TruncatePipe  -->
<g id="edge9" class="edge">
<title>SnotifyModule&#45;&gt;TruncatePipe </title>
<path fill="none" stroke="#000000" stroke-dasharray="5,2" d="M343.4334,-178C316.1048,-178 287.8947,-178 287.8947,-178 287.8947,-178 287.8947,-205.973 287.8947,-205.973"/>
<polygon fill="#000000" stroke="#000000" points="284.3947,-205.973 287.8947,-215.973 291.3947,-205.973 284.3947,-205.973"/>
</g>
</g>
</svg>
