<?xml version="1.0" encoding="UTF-8" standalone="no"?>
<!DOCTYPE svg PUBLIC "-//W3C//DTD SVG 1.1//EN"
 "http://www.w3.org/Graphics/SVG/1.1/DTD/svg11.dtd">
<!-- Generated by graphviz version 2.40.1 (20161225.0304)
 -->
<!-- Title: dependencies Pages: 1 -->
<svg width="787pt" height="284pt"
 viewBox="0.00 0.00 787.00 284.00" xmlns="http://www.w3.org/2000/svg" xmlns:xlink="http://www.w3.org/1999/xlink">
<g id="graph0" class="graph" transform="scale(1 1) rotate(0) translate(4 280)">
<title>dependencies</title>
<polygon fill="#ffffff" stroke="transparent" points="-4,4 -4,-280 783,-280 783,4 -4,4"/>
<text text-anchor="start" x="368.5091" y="-42.4" font-family="sans-serif" font-weight="bold" font-size="14.00" fill="#000000">Legend</text>
<polygon fill="#ffffb3" stroke="transparent" points="155.5,-10 155.5,-30 175.5,-30 175.5,-10 155.5,-10"/>
<text text-anchor="start" x="179.129" y="-15.4" font-family="sans-serif" font-size="14.00" fill="#000000"> &#160;Declarations</text>
<polygon fill="#8dd3c7" stroke="transparent" points="268.5,-10 268.5,-30 288.5,-30 288.5,-10 268.5,-10"/>
<text text-anchor="start" x="292.2251" y="-15.4" font-family="sans-serif" font-size="14.00" fill="#000000"> &#160;Module</text>
<polygon fill="#80b1d3" stroke="transparent" points="354.5,-10 354.5,-30 374.5,-30 374.5,-10 354.5,-10"/>
<text text-anchor="start" x="378.2812" y="-15.4" font-family="sans-serif" font-size="14.00" fill="#000000"> &#160;Bootstrap</text>
<polygon fill="#fdb462" stroke="transparent" points="451.5,-10 451.5,-30 471.5,-30 471.5,-10 451.5,-10"/>
<text text-anchor="start" x="475.1732" y="-15.4" font-family="sans-serif" font-size="14.00" fill="#000000"> &#160;Providers</text>
<polygon fill="#fb8072" stroke="transparent" points="547.5,-10 547.5,-30 567.5,-30 567.5,-10 547.5,-10"/>
<text text-anchor="start" x="571.2258" y="-15.4" font-family="sans-serif" font-size="14.00" fill="#000000"> &#160;Exports</text>
<g id="clust1" class="cluster">
<title>cluster_AppModule</title>
<polygon fill="none" stroke="#000000" stroke-dasharray="1,5" points="8,-70 8,-268 771,-268 771,-70 8,-70"/>
</g>
<g id="clust2" class="cluster">
<title>cluster_AppModule_declarations</title>
<polygon fill="none" stroke="#000000" points="641,-78 641,-130 763,-130 763,-78 641,-78"/>
</g>
<g id="clust4" class="cluster">
<title>cluster_AppModule_imports</title>
<polygon fill="none" stroke="#000000" points="176,-78 176,-130 633,-130 633,-78 176,-78"/>
</g>
<g id="clust6" class="cluster">
<title>cluster_AppModule_bootstrap</title>
<polygon fill="none" stroke="#000000" points="337,-208 337,-260 461,-260 461,-208 337,-208"/>
</g>
<g id="clust7" class="cluster">
<title>cluster_AppModule_providers</title>
<polygon fill="none" stroke="#000000" points="16,-78 16,-130 168,-130 168,-78 16,-78"/>
</g>
<!-- AppComponent -->
<g id="node1" class="node">
<title>AppComponent</title>
<polygon fill="#ffffb3" stroke="#000000" points="754.9399,-122 649.0601,-122 649.0601,-86 754.9399,-86 754.9399,-122"/>
<text text-anchor="middle" x="702" y="-99.8" font-family="Times,serif" font-size="14.00" fill="#000000">AppComponent</text>
</g>
<!-- AppModule -->
<g id="node2" class="node">
<title>AppModule</title>
<polygon fill="#8dd3c7" stroke="#000000" points="440.6571,-187 437.6571,-191 416.6571,-191 413.6571,-187 357.3429,-187 357.3429,-151 440.6571,-151 440.6571,-187"/>
<text text-anchor="middle" x="399" y="-164.8" font-family="Times,serif" font-size="14.00" fill="#000000">AppModule</text>
</g>
<!-- AppComponent&#45;&gt;AppModule -->
<g id="edge1" class="edge">
<title>AppComponent&#45;&gt;AppModule</title>
<path fill="none" stroke="#000000" d="M702,-122.2843C702,-143.3211 702,-175 702,-175 702,-175 450.8127,-175 450.8127,-175"/>
<polygon fill="#000000" stroke="#000000" points="450.8128,-171.5001 440.8127,-175 450.8127,-178.5001 450.8128,-171.5001"/>
</g>
<!-- AppComponent  -->
<g id="node7" class="node">
<title>AppComponent </title>
<polygon fill="#80b1d3" stroke="#000000" points="453.439,-252 344.561,-252 344.561,-216 453.439,-216 453.439,-252"/>
<text text-anchor="middle" x="399" y="-229.8" font-family="Times,serif" font-size="14.00" fill="#000000">AppComponent </text>
</g>
<!-- AppModule&#45;&gt;AppComponent  -->
<g id="edge6" class="edge">
<title>AppModule&#45;&gt;AppComponent </title>
<path fill="none" stroke="#000000" stroke-dasharray="1,5" d="M399,-187.1061C399,-187.1061 399,-205.991 399,-205.991"/>
<polygon fill="#000000" stroke="#000000" points="395.5001,-205.9909 399,-215.991 402.5001,-205.991 395.5001,-205.9909"/>
</g>
<!-- BrowserModule -->
<g id="node3" class="node">
<title>BrowserModule</title>
<polygon fill="#8dd3c7" stroke="#000000" points="625.4734,-122 622.4734,-126 601.4734,-126 598.4734,-122 518.5266,-122 518.5266,-86 625.4734,-86 625.4734,-122"/>
<text text-anchor="middle" x="572" y="-99.8" font-family="Times,serif" font-size="14.00" fill="#000000">BrowserModule</text>
</g>
<!-- BrowserModule&#45;&gt;AppModule -->
<g id="edge2" class="edge">
<title>BrowserModule&#45;&gt;AppModule</title>
<path fill="none" stroke="#000000" d="M572,-122.0225C572,-139.3734 572,-163 572,-163 572,-163 450.8785,-163 450.8785,-163"/>
<polygon fill="#000000" stroke="#000000" points="450.8785,-159.5001 440.8785,-163 450.8784,-166.5001 450.8785,-159.5001"/>
</g>
<!-- FormsModule -->
<g id="node4" class="node">
<title>FormsModule</title>
<polygon fill="#8dd3c7" stroke="#000000" points="500.8288,-122 497.8288,-126 476.8288,-126 473.8288,-122 405.1712,-122 405.1712,-86 500.8288,-86 500.8288,-122"/>
<text text-anchor="middle" x="453" y="-99.8" font-family="Times,serif" font-size="14.00" fill="#000000">FormsModule</text>
</g>
<!-- FormsModule&#45;&gt;AppModule -->
<g id="edge3" class="edge">
<title>FormsModule&#45;&gt;AppModule</title>
<path fill="none" stroke="#000000" d="M423.0821,-122.1061C423.0821,-122.1061 423.0821,-140.991 423.0821,-140.991"/>
<polygon fill="#000000" stroke="#000000" points="419.5821,-140.9909 423.0821,-150.991 426.5821,-140.991 419.5821,-140.9909"/>
</g>
<!-- HttpModule -->
<g id="node5" class="node">
<title>HttpModule</title>
<polygon fill="#8dd3c7" stroke="#000000" points="387.4387,-122 384.4387,-126 363.4387,-126 360.4387,-122 302.5613,-122 302.5613,-86 387.4387,-86 387.4387,-122"/>
<text text-anchor="middle" x="345" y="-99.8" font-family="Times,serif" font-size="14.00" fill="#000000">HttpModule</text>
</g>
<!-- HttpModule&#45;&gt;AppModule -->
<g id="edge4" class="edge">
<title>HttpModule&#45;&gt;AppModule</title>
<path fill="none" stroke="#000000" d="M372.1953,-122.1061C372.1953,-122.1061 372.1953,-140.991 372.1953,-140.991"/>
<polygon fill="#000000" stroke="#000000" points="368.6954,-140.9909 372.1953,-150.991 375.6954,-140.991 368.6954,-140.9909"/>
</g>
<!-- SnotifyModule -->
<g id="node6" class="node">
<title>SnotifyModule</title>
<polygon fill="#8dd3c7" stroke="#000000" points="284.2745,-122 281.2745,-126 260.2745,-126 257.2745,-122 183.7255,-122 183.7255,-86 284.2745,-86 284.2745,-122"/>
<text text-anchor="middle" x="234" y="-99.8" font-family="Times,serif" font-size="14.00" fill="#000000">SnotifyModule</text>
</g>
<!-- SnotifyModule&#45;&gt;AppModule -->
<g id="edge5" class="edge">
<title>SnotifyModule&#45;&gt;AppModule</title>
<path fill="none" stroke="#000000" d="M234,-122.0225C234,-139.3734 234,-163 234,-163 234,-163 346.9366,-163 346.9366,-163"/>
<polygon fill="#000000" stroke="#000000" points="346.9366,-166.5001 356.9366,-163 346.9366,-159.5001 346.9366,-166.5001"/>
</g>
<!-- SnotifyService -->
<g id="node8" class="node">
<title>SnotifyService</title>
<ellipse fill="#fdb462" stroke="#000000" cx="92" cy="-104" rx="68.3555" ry="18"/>
<text text-anchor="middle" x="92" y="-99.8" font-family="Times,serif" font-size="14.00" fill="#000000">SnotifyService</text>
</g>
<!-- SnotifyService&#45;&gt;AppModule -->
<g id="edge7" class="edge">
<title>SnotifyService&#45;&gt;AppModule</title>
<path fill="none" stroke="#000000" d="M92,-122.2843C92,-143.3211 92,-175 92,-175 92,-175 347.2771,-175 347.2771,-175"/>
<polygon fill="#000000" stroke="#000000" points="347.2771,-178.5001 357.2771,-175 347.2771,-171.5001 347.2771,-178.5001"/>
</g>
</g>
</svg>
