<?xml version="1.0" encoding="UTF-8" standalone="no"?>
<!DOCTYPE svg PUBLIC "-//W3C//DTD SVG 1.1//EN"
 "http://www.w3.org/Graphics/SVG/1.1/DTD/svg11.dtd">
<!-- Generated by graphviz version 2.40.1 (20161225.0304)
 -->
<!-- Title: dependencies Pages: 1 -->
<svg width="911pt" height="290pt"
 viewBox="0.00 0.00 911.00 290.00" xmlns="http://www.w3.org/2000/svg" xmlns:xlink="http://www.w3.org/1999/xlink">
<g id="graph0" class="graph" transform="scale(1 1) rotate(0) translate(4 286)">
<title>dependencies</title>
<polygon fill="#ffffff" stroke="transparent" points="-4,4 -4,-286 907,-286 907,4 -4,4"/>
<text text-anchor="start" x="430.5091" y="-42.4" font-family="sans-serif" font-weight="bold" font-size="14.00" fill="#000000">Legend</text>
<polygon fill="#ffffb3" stroke="transparent" points="217.5,-10 217.5,-30 237.5,-30 237.5,-10 217.5,-10"/>
<text text-anchor="start" x="241.129" y="-15.4" font-family="sans-serif" font-size="14.00" fill="#000000"> &#160;Declarations</text>
<polygon fill="#8dd3c7" stroke="transparent" points="330.5,-10 330.5,-30 350.5,-30 350.5,-10 330.5,-10"/>
<text text-anchor="start" x="354.2251" y="-15.4" font-family="sans-serif" font-size="14.00" fill="#000000"> &#160;Module</text>
<polygon fill="#80b1d3" stroke="transparent" points="416.5,-10 416.5,-30 436.5,-30 436.5,-10 416.5,-10"/>
<text text-anchor="start" x="440.2812" y="-15.4" font-family="sans-serif" font-size="14.00" fill="#000000"> &#160;Bootstrap</text>
<polygon fill="#fdb462" stroke="transparent" points="513.5,-10 513.5,-30 533.5,-30 533.5,-10 513.5,-10"/>
<text text-anchor="start" x="537.1732" y="-15.4" font-family="sans-serif" font-size="14.00" fill="#000000"> &#160;Providers</text>
<polygon fill="#fb8072" stroke="transparent" points="609.5,-10 609.5,-30 629.5,-30 629.5,-10 609.5,-10"/>
<text text-anchor="start" x="633.2258" y="-15.4" font-family="sans-serif" font-size="14.00" fill="#000000"> &#160;Exports</text>
<g id="clust1" class="cluster">
<title>cluster_AppModule</title>
<polygon fill="none" stroke="#000000" stroke-dasharray="1,5" points="8,-70 8,-274 481,-274 481,-70 8,-70"/>
</g>
<g id="clust3" class="cluster">
<title>cluster_AppModule_imports</title>
<polygon fill="none" stroke="#000000" points="16,-78 16,-130 473,-130 473,-78 16,-78"/>
</g>
<g id="clust5" class="cluster">
<title>cluster_AppModule_bootstrap</title>
<polygon fill="none" stroke="#000000" points="171,-214 171,-266 295,-266 295,-214 171,-214"/>
</g>
<g id="clust7" class="cluster">
<title>cluster_SnotifyModule</title>
<polygon fill="none" stroke="#000000" stroke-dasharray="1,5" points="489,-138 489,-206 895,-206 895,-138 489,-138"/>
</g>
<g id="clust9" class="cluster">
<title>cluster_SnotifyModule_imports</title>
<polygon fill="none" stroke="#000000" points="759,-146 759,-198 887,-198 887,-146 759,-146"/>
</g>
<g id="clust10" class="cluster">
<title>cluster_SnotifyModule_exports</title>
<polygon fill="none" stroke="#000000" points="497,-146 497,-198 751,-198 751,-146 497,-146"/>
</g>
<!-- BrowserModule -->
<g id="node1" class="node">
<title>BrowserModule</title>
<polygon fill="#8dd3c7" stroke="#000000" points="346.4734,-122 343.4734,-126 322.4734,-126 319.4734,-122 239.5266,-122 239.5266,-86 346.4734,-86 346.4734,-122"/>
<text text-anchor="middle" x="293" y="-99.8" font-family="Times,serif" font-size="14.00" fill="#000000">BrowserModule</text>
</g>
<!-- AppModule -->
<g id="node5" class="node">
<title>AppModule</title>
<polygon fill="#8dd3c7" stroke="#000000" points="274.6571,-190 271.6571,-194 250.6571,-194 247.6571,-190 191.3429,-190 191.3429,-154 274.6571,-154 274.6571,-190"/>
<text text-anchor="middle" x="233" y="-167.8" font-family="Times,serif" font-size="14.00" fill="#000000">AppModule</text>
</g>
<!-- BrowserModule&#45;&gt;AppModule -->
<g id="edge1" class="edge">
<title>BrowserModule&#45;&gt;AppModule</title>
<path fill="none" stroke="#000000" d="M257.1708,-122.2228C257.1708,-122.2228 257.1708,-143.7269 257.1708,-143.7269"/>
<polygon fill="#000000" stroke="#000000" points="253.6708,-143.7269 257.1708,-153.7269 260.6708,-143.727 253.6708,-143.7269"/>
</g>
<!-- FormsModule -->
<g id="node2" class="node">
<title>FormsModule</title>
<polygon fill="#8dd3c7" stroke="#000000" points="221.8288,-122 218.8288,-126 197.8288,-126 194.8288,-122 126.1712,-122 126.1712,-86 221.8288,-86 221.8288,-122"/>
<text text-anchor="middle" x="174" y="-99.8" font-family="Times,serif" font-size="14.00" fill="#000000">FormsModule</text>
</g>
<!-- FormsModule&#45;&gt;AppModule -->
<g id="edge2" class="edge">
<title>FormsModule&#45;&gt;AppModule</title>
<path fill="none" stroke="#000000" d="M206.418,-122.2228C206.418,-122.2228 206.418,-143.7269 206.418,-143.7269"/>
<polygon fill="#000000" stroke="#000000" points="202.918,-143.7269 206.418,-153.7269 209.918,-143.727 202.918,-143.7269"/>
</g>
<!-- HttpModule -->
<g id="node3" class="node">
<title>HttpModule</title>
<polygon fill="#8dd3c7" stroke="#000000" points="108.4387,-122 105.4387,-126 84.4387,-126 81.4387,-122 23.5613,-122 23.5613,-86 108.4387,-86 108.4387,-122"/>
<text text-anchor="middle" x="66" y="-99.8" font-family="Times,serif" font-size="14.00" fill="#000000">HttpModule</text>
</g>
<!-- HttpModule&#45;&gt;AppModule -->
<g id="edge3" class="edge">
<title>HttpModule&#45;&gt;AppModule</title>
<path fill="none" stroke="#000000" d="M66,-122.2228C66,-142.3652 66,-172 66,-172 66,-172 181.2896,-172 181.2896,-172"/>
<polygon fill="#000000" stroke="#000000" points="181.2897,-175.5001 191.2896,-172 181.2896,-168.5001 181.2897,-175.5001"/>
</g>
<!-- SnotifyModule -->
<g id="node4" class="node">
<title>SnotifyModule</title>
<polygon fill="#8dd3c7" stroke="#000000" points="465.2745,-122 462.2745,-126 441.2745,-126 438.2745,-122 364.7255,-122 364.7255,-86 465.2745,-86 465.2745,-122"/>
<text text-anchor="middle" x="415" y="-99.8" font-family="Times,serif" font-size="14.00" fill="#000000">SnotifyModule</text>
</g>
<!-- SnotifyModule&#45;&gt;AppModule -->
<g id="edge4" class="edge">
<title>SnotifyModule&#45;&gt;AppModule</title>
<path fill="none" stroke="#000000" d="M415,-122.2228C415,-142.3652 415,-172 415,-172 415,-172 284.7545,-172 284.7545,-172"/>
<polygon fill="#000000" stroke="#000000" points="284.7545,-168.5001 274.7545,-172 284.7544,-175.5001 284.7545,-168.5001"/>
</g>
<!-- SnotifyComponent  -->
<g id="node8" class="node">
<title>SnotifyComponent </title>
<polygon fill="#fb8072" stroke="#000000" points="743.0568,-190 616.9432,-190 616.9432,-154 743.0568,-154 743.0568,-190"/>
<text text-anchor="middle" x="680" y="-167.8" font-family="Times,serif" font-size="14.00" fill="#000000">SnotifyComponent </text>
</g>
<!-- SnotifyModule&#45;&gt;SnotifyComponent  -->
<g id="edge7" class="edge">
<title>SnotifyModule&#45;&gt;SnotifyComponent </title>
<path fill="none" stroke="#000000" stroke-dasharray="5,2" d="M465.4744,-104C547.582,-104 701.0095,-104 701.0095,-104 701.0095,-104 701.0095,-143.7772 701.0095,-143.7772"/>
<polygon fill="#000000" stroke="#000000" points="697.5096,-143.7772 701.0095,-153.7772 704.5096,-143.7773 697.5096,-143.7772"/>
</g>
<!-- SnotifyModule&#45;&gt;SnotifyComponent  -->
<g id="edge9" class="edge">
<title>SnotifyModule&#45;&gt;SnotifyComponent </title>
<path fill="none" stroke="#000000" stroke-dasharray="5,2" d="M465.555,-110C537.0213,-110 658.9905,-110 658.9905,-110 658.9905,-110 658.9905,-143.7333 658.9905,-143.7333"/>
<polygon fill="#000000" stroke="#000000" points="655.4906,-143.7333 658.9905,-153.7333 662.4906,-143.7333 655.4906,-143.7333"/>
</g>
<!-- TruncatePipe  -->
<g id="node9" class="node">
<title>TruncatePipe </title>
<polygon fill="#fb8072" stroke="#000000" points="599.1355,-190 504.8645,-190 504.8645,-154 599.1355,-154 599.1355,-190"/>
<text text-anchor="middle" x="552" y="-167.8" font-family="Times,serif" font-size="14.00" fill="#000000">TruncatePipe </text>
</g>
<!-- SnotifyModule&#45;&gt;TruncatePipe  -->
<g id="edge10" class="edge">
<title>SnotifyModule&#45;&gt;TruncatePipe </title>
<path fill="none" stroke="#000000" stroke-dasharray="5,2" d="M465.6245,-116C504.6507,-116 552,-116 552,-116 552,-116 552,-143.973 552,-143.973"/>
<polygon fill="#000000" stroke="#000000" points="548.5001,-143.973 552,-153.973 555.5001,-143.973 548.5001,-143.973"/>
</g>
<!-- AppComponent  -->
<g id="node6" class="node">
<title>AppComponent </title>
<polygon fill="#80b1d3" stroke="#000000" points="287.439,-258 178.561,-258 178.561,-222 287.439,-222 287.439,-258"/>
<text text-anchor="middle" x="233" y="-235.8" font-family="Times,serif" font-size="14.00" fill="#000000">AppComponent </text>
</g>
<!-- AppModule&#45;&gt;AppComponent  -->
<g id="edge5" class="edge">
<title>AppModule&#45;&gt;AppComponent </title>
<path fill="none" stroke="#000000" stroke-dasharray="1,5" d="M233,-190.2228C233,-190.2228 233,-211.7269 233,-211.7269"/>
<polygon fill="#000000" stroke="#000000" points="229.5001,-211.7269 233,-221.7269 236.5001,-211.727 229.5001,-211.7269"/>
</g>
<!-- CommonModule -->
<g id="node7" class="node">
<title>CommonModule</title>
<polygon fill="#8dd3c7" stroke="#000000" points="878.6681,-190 875.6681,-194 854.6681,-194 851.6681,-190 767.3319,-190 767.3319,-154 878.6681,-154 878.6681,-190"/>
<text text-anchor="middle" x="823" y="-167.8" font-family="Times,serif" font-size="14.00" fill="#000000">CommonModule</text>
</g>
<!-- CommonModule&#45;&gt;SnotifyModule -->
<g id="edge6" class="edge">
<title>CommonModule&#45;&gt;SnotifyModule</title>
<path fill="none" stroke="#000000" d="M841.6113,-153.8468C841.6113,-130.2434 841.6113,-92 841.6113,-92 841.6113,-92 475.6132,-92 475.6132,-92"/>
<polygon fill="#000000" stroke="#000000" points="475.6132,-88.5001 465.6132,-92 475.6132,-95.5001 475.6132,-88.5001"/>
</g>
<!-- CommonModule&#45;&gt;SnotifyModule -->
<g id="edge8" class="edge">
<title>CommonModule&#45;&gt;SnotifyModule</title>
<path fill="none" stroke="#000000" d="M804.3887,-153.7079C804.3887,-131.7943 804.3887,-98 804.3887,-98 804.3887,-98 475.5066,-98 475.5066,-98"/>
<polygon fill="#000000" stroke="#000000" points="475.5066,-94.5001 465.5066,-98 475.5065,-101.5001 475.5066,-94.5001"/>
</g>
</g>
</svg>
