<?xml version="1.0" encoding="UTF-8" standalone="no"?>
<!DOCTYPE svg PUBLIC "-//W3C//DTD SVG 1.1//EN"
 "http://www.w3.org/Graphics/SVG/1.1/DTD/svg11.dtd">
<!-- Generated by graphviz version 2.40.1 (20161225.0304)
 -->
<!-- Title: dependencies Pages: 1 -->
<svg width="504pt" height="284pt"
 viewBox="0.00 0.00 504.00 284.00" xmlns="http://www.w3.org/2000/svg" xmlns:xlink="http://www.w3.org/1999/xlink">
<g id="graph0" class="graph" transform="scale(1 1) rotate(0) translate(4 280)">
<title>dependencies</title>
<polygon fill="#ffffff" stroke="transparent" points="-4,4 -4,-280 500,-280 500,4 -4,4"/>
<text text-anchor="start" x="227.0091" y="-42.4" font-family="sans-serif" font-weight="bold" font-size="14.00" fill="#000000">Legend</text>
<polygon fill="#ffffb3" stroke="transparent" points="14,-10 14,-30 34,-30 34,-10 14,-10"/>
<text text-anchor="start" x="37.629" y="-15.4" font-family="sans-serif" font-size="14.00" fill="#000000"> &#160;Declarations</text>
<polygon fill="#8dd3c7" stroke="transparent" points="127,-10 127,-30 147,-30 147,-10 127,-10"/>
<text text-anchor="start" x="150.7251" y="-15.4" font-family="sans-serif" font-size="14.00" fill="#000000"> &#160;Module</text>
<polygon fill="#80b1d3" stroke="transparent" points="213,-10 213,-30 233,-30 233,-10 213,-10"/>
<text text-anchor="start" x="236.7812" y="-15.4" font-family="sans-serif" font-size="14.00" fill="#000000"> &#160;Bootstrap</text>
<polygon fill="#fdb462" stroke="transparent" points="310,-10 310,-30 330,-30 330,-10 310,-10"/>
<text text-anchor="start" x="333.6732" y="-15.4" font-family="sans-serif" font-size="14.00" fill="#000000"> &#160;Providers</text>
<polygon fill="#fb8072" stroke="transparent" points="406,-10 406,-30 426,-30 426,-10 406,-10"/>
<text text-anchor="start" x="429.7258" y="-15.4" font-family="sans-serif" font-size="14.00" fill="#000000"> &#160;Exports</text>
<g id="clust1" class="cluster">
<title>cluster_SnotifyModule</title>
<polygon fill="none" stroke="#000000" stroke-dasharray="1,5" points="169,-70 169,-268 327,-268 327,-70 169,-70"/>
</g>
<g id="clust3" class="cluster">
<title>cluster_SnotifyModule_imports</title>
<polygon fill="none" stroke="#000000" points="184,-78 184,-130 312,-130 312,-78 184,-78"/>
</g>
<g id="clust4" class="cluster">
<title>cluster_SnotifyModule_exports</title>
<polygon fill="none" stroke="#000000" points="177,-208 177,-260 319,-260 319,-208 177,-208"/>
</g>
<!-- CommonModule -->
<g id="node1" class="node">
<title>CommonModule</title>
<polygon fill="#8dd3c7" stroke="#000000" points="303.6681,-122 300.6681,-126 279.6681,-126 276.6681,-122 192.3319,-122 192.3319,-86 303.6681,-86 303.6681,-122"/>
<text text-anchor="middle" x="248" y="-99.8" font-family="Times,serif" font-size="14.00" fill="#000000">CommonModule</text>
</g>
<!-- SnotifyModule -->
<g id="node2" class="node">
<title>SnotifyModule</title>
<polygon fill="#8dd3c7" stroke="#000000" points="298.2745,-187 295.2745,-191 274.2745,-191 271.2745,-187 197.7255,-187 197.7255,-151 298.2745,-151 298.2745,-187"/>
<text text-anchor="middle" x="248" y="-164.8" font-family="Times,serif" font-size="14.00" fill="#000000">SnotifyModule</text>
</g>
<!-- CommonModule&#45;&gt;SnotifyModule -->
<g id="edge1" class="edge">
<title>CommonModule&#45;&gt;SnotifyModule</title>
<path fill="none" stroke="#000000" d="M231.2043,-122.1061C231.2043,-122.1061 231.2043,-140.991 231.2043,-140.991"/>
<polygon fill="#000000" stroke="#000000" points="227.7044,-140.9909 231.2043,-150.991 234.7044,-140.991 227.7044,-140.9909"/>
</g>
<!-- CommonModule&#45;&gt;SnotifyModule -->
<g id="edge3" class="edge">
<title>CommonModule&#45;&gt;SnotifyModule</title>
<path fill="none" stroke="#000000" d="M264.7957,-122.1061C264.7957,-122.1061 264.7957,-140.991 264.7957,-140.991"/>
<polygon fill="#000000" stroke="#000000" points="261.2958,-140.9909 264.7957,-150.991 268.2958,-140.991 261.2958,-140.9909"/>
</g>
<!-- SnotifyComponent  -->
<g id="node3" class="node">
<title>SnotifyComponent </title>
<polygon fill="#fb8072" stroke="#000000" points="311.0568,-252 184.9432,-252 184.9432,-216 311.0568,-216 311.0568,-252"/>
<text text-anchor="middle" x="248" y="-229.8" font-family="Times,serif" font-size="14.00" fill="#000000">SnotifyComponent </text>
</g>
<!-- SnotifyModule&#45;&gt;SnotifyComponent  -->
<g id="edge2" class="edge">
<title>SnotifyModule&#45;&gt;SnotifyComponent </title>
<path fill="none" stroke="#000000" stroke-dasharray="5,2" d="M231.2043,-187.1061C231.2043,-187.1061 231.2043,-205.991 231.2043,-205.991"/>
<polygon fill="#000000" stroke="#000000" points="227.7044,-205.9909 231.2043,-215.991 234.7044,-205.991 227.7044,-205.9909"/>
</g>
<!-- SnotifyModule&#45;&gt;SnotifyComponent  -->
<g id="edge4" class="edge">
<title>SnotifyModule&#45;&gt;SnotifyComponent </title>
<path fill="none" stroke="#000000" stroke-dasharray="5,2" d="M264.7957,-187.1061C264.7957,-187.1061 264.7957,-205.991 264.7957,-205.991"/>
<polygon fill="#000000" stroke="#000000" points="261.2958,-205.9909 264.7957,-215.991 268.2958,-205.991 261.2958,-205.9909"/>
</g>
</g>
</svg>
